<svg width="20" height="22" fill="none" xmlns="http://www.w3.org/2000/svg"><path d="m19.555 18.472-4.122-4.147c.993-1.442 1.49-3.05 1.49-4.823a8.403 8.403 0 0 0-.667-3.307 8.51 8.51 0 0 0-1.803-2.72A8.455 8.455 0 0 0 11.75 1.66a8.274 8.274 0 0 0-3.287-.67 8.272 8.272 0 0 0-3.288.67A8.455 8.455 0 0 0 2.47 3.475a8.512 8.512 0 0 0-1.803 2.72A8.406 8.406 0 0 0 0 9.502c0 1.152.222 2.254.667 3.306a8.51 8.51 0 0 0 1.803 2.72 8.458 8.458 0 0 0 2.704 1.814 8.275 8.275 0 0 0 3.288.67c1.763 0 3.361-.5 4.796-1.498l4.122 4.134c.289.306.649.46 1.082.46.416 0 .777-.154 1.081-.46.305-.306.457-.669.457-1.088 0-.427-.148-.79-.445-1.088Zm-7.29-5.144c-1.053 1.06-2.32 1.59-3.803 1.59s-2.75-.53-3.804-1.59c-1.054-1.06-1.581-2.335-1.581-3.827 0-1.49.527-2.766 1.58-3.826 1.054-1.06 2.322-1.59 3.805-1.59 1.482 0 2.75.53 3.804 1.59 1.054 1.06 1.58 2.336 1.58 3.826 0 1.492-.527 2.767-1.58 3.827Z" fill="#fff"/></svg>