<svg width="14" height="15" fill="none" xmlns="http://www.w3.org/2000/svg"><path d="M7 .342C3.254.342.219 3.43.219 7.242c0 3.812 3.035 6.9 6.781 6.9 3.746 0 6.781-3.088 6.781-6.9 0-3.812-3.035-6.9-6.781-6.9Zm0 12.465c-3.021 0-5.469-2.49-5.469-5.565S3.98 1.677 7 1.677c3.021 0 5.469 2.49 5.469 5.565 0 3.074-2.447 5.565-5.469 5.565Zm1.69-2.905L6.368 8.185a.338.338 0 0 1-.134-.27V3.347c0-.184.148-.334.329-.334h.875c.18 0 .328.15.328.334v3.942l1.826 1.352a.338.338 0 0 1 .071.468l-.514.72a.327.327 0 0 1-.46.073Z" fill="#737374"/></svg>