<svg width="13" height="14" fill="none" xmlns="http://www.w3.org/2000/svg"><path d="M8.575 8.313c-.785 0-1.162.437-2.45.437-1.288 0-1.662-.438-2.45-.438A3.676 3.676 0 0 0 0 11.989v.7C0 13.412.588 14 1.313 14h9.624c.725 0 1.313-.588 1.313-1.313v-.7a3.676 3.676 0 0 0-3.675-3.675Zm2.363 4.374H1.312v-.7a2.367 2.367 0 0 1 2.363-2.362c.4 0 1.047.438 2.45.438 1.414 0 2.048-.438 2.45-.438a2.367 2.367 0 0 1 2.363 2.363v.7ZM6.125 7.875a3.939 3.939 0 0 0 0-7.875 3.939 3.939 0 0 0 0 7.875Zm0-6.563A2.63 2.63 0 0 1 8.75 3.938a2.63 2.63 0 0 1-2.625 2.626A2.63 2.63 0 0 1 3.5 3.938a2.63 2.63 0 0 1 2.625-2.626Z" fill="#737374"/></svg>