<svg width="18" height="20" fill="none" xmlns="http://www.w3.org/2000/svg"><g clip-path="url('#clip0_0_28')"><path d="M.365.32C.14.56.008.934.008 1.408v17.187c0 .481.132.854.357 1.087l.055.055 9.627-9.62v-.232L.42.265.365.32Z" fill="url('#paint0_linear_0_28')"/><path d="m13.255 13.327-3.209-3.21v-.232l3.21-3.21.07.04 3.799 2.16c1.088.613 1.088 1.623 0 2.245l-3.8 2.16-.07.047Z" fill="url('#paint1_linear_0_28')"/><path d="M13.325 13.288 10.047 10l-9.682 9.69c.358.38.948.427 1.616.046l11.344-6.45Z" fill="url('#paint2_linear_0_28')"/><path d="M13.325 6.722 1.974.273C1.305-.107.714-.06.357.32L10.047 10l3.278-3.279Z" fill="url('#paint3_linear_0_28')"/><path opacity=".2" d="M13.255 13.21 1.974 19.62c-.63.357-1.197.334-1.554.008l-.055.054.055.054c.365.327.924.35 1.554-.007l11.351-6.45-.07-.07Z" fill="#000"/><path opacity=".12" d="M.365 19.573c-.225-.24-.357-.614-.357-1.088v.117c0 .482.132.855.357 1.088l.055-.055-.055-.062ZM17.125 11.011l-3.877 2.2.07.07 3.8-2.16c.543-.312.815-.716.815-1.12-.039.373-.31.73-.808 1.01Z" fill="#000"/><path opacity=".25" d="m1.974.382 15.15 8.609c.49.28.77.637.817 1.01 0-.404-.272-.816-.816-1.119L1.974.272C.886-.34 0 .173 0 1.416v.117C0 .28.894-.232 1.974.382Z" fill="#fff"/></g><defs><linearGradient id="paint0_linear_0_28" x1="9.192" y1="1.23" x2="-3.848" y2="14.27" gradientUnits="userSpaceOnUse"><stop stop-color="#00A0FF"/><stop offset=".007" stop-color="#00A1FF"/><stop offset=".26" stop-color="#00BEFF"/><stop offset=".512" stop-color="#00D2FF"/><stop offset=".76" stop-color="#00DFFF"/><stop offset="1" stop-color="#00E3FF"/></linearGradient><linearGradient id="paint1_linear_0_28" x1="18.542" y1="10.003" x2="-.258" y2="10.003" gradientUnits="userSpaceOnUse"><stop stop-color="#FFE000"/><stop offset=".409" stop-color="#FFBD00"/><stop offset=".775" stop-color="orange"/><stop offset="1" stop-color="#FF9C00"/></linearGradient><linearGradient id="paint2_linear_0_28" x1="11.544" y1="11.786" x2="-6.139" y2="29.469" gradientUnits="userSpaceOnUse"><stop stop-color="#FF3A44"/><stop offset="1" stop-color="#C31162"/></linearGradient><linearGradient id="paint3_linear_0_28" x1="-2.077" y1="-5.401" x2="5.82" y2="2.495" gradientUnits="userSpaceOnUse"><stop stop-color="#32A071"/><stop offset=".069" stop-color="#2DA771"/><stop offset=".476" stop-color="#15CF74"/><stop offset=".801" stop-color="#06E775"/><stop offset="1" stop-color="#00F076"/></linearGradient><clipPath id="clip0_0_28"><path fill="#fff" d="M0 0h18v20H0z"/></clipPath></defs></svg>