<svg width="16" height="17" fill="none" xmlns="http://www.w3.org/2000/svg"><path d="M8.002 3.985c-2.27 0-4.102 1.842-4.102 4.126 0 2.284 1.832 4.127 4.102 4.127 2.27 0 4.101-1.843 4.101-4.127s-1.831-4.126-4.101-4.126Zm0 6.809A2.68 2.68 0 0 1 5.335 8.11 2.677 2.677 0 0 1 8.002 5.43a2.677 2.677 0 0 1 2.666 2.682 2.68 2.68 0 0 1-2.666 2.683Zm5.225-6.978a.957.957 0 1 1-1.913 0 .96.96 0 0 1 .957-.962.96.96 0 0 1 .956.962Zm2.717.977c-.06-1.29-.354-2.431-1.292-3.372-.935-.94-2.07-1.235-3.352-1.3-1.32-.075-5.28-.075-6.6 0-1.278.061-2.413.356-3.352 1.296C.41 2.358.12 3.5.056 4.79c-.075 1.328-.075 5.31 0 6.64.06 1.289.354 2.43 1.292 3.372.94.94 2.07 1.235 3.352 1.3 1.32.075 5.28.075 6.6 0 1.281-.061 2.416-.356 3.352-1.3.935-.941 1.228-2.083 1.292-3.372.075-1.33.075-5.308 0-6.637Zm-1.706 8.062a2.708 2.708 0 0 1-1.521 1.53c-1.053.42-3.552.323-4.715.323-1.164 0-3.666.094-4.715-.323a2.708 2.708 0 0 1-1.521-1.53c-.418-1.06-.321-3.573-.321-4.744 0-1.17-.093-3.688.321-4.744a2.708 2.708 0 0 1 1.52-1.53c1.054-.42 3.552-.323 4.716-.323 1.163 0 3.666-.093 4.715.324.7.28 1.239.822 1.52 1.53.418 1.059.322 3.573.322 4.743 0 1.171.096 3.688-.321 4.744Z" fill="#fff"/></svg>