<svg width="24" height="15" fill="none" xmlns="http://www.w3.org/2000/svg"><path d="M23.357 2.234H.643C.288 2.234 0 2.02 0 1.755V.48C0 .214.288 0 .643 0h22.714c.355 0 .643.214.643.479v1.276c0 .265-.288.479-.643.479Zm0 6.383H.643C.288 8.617 0 8.403 0 8.138V6.862c0-.265.288-.479.643-.479h22.714c.355 0 .643.214.643.479v1.276c0 .265-.288.479-.643.479Zm0 6.383H.643C.288 15 0 14.786 0 14.521v-1.276c0-.265.288-.479.643-.479h22.714c.355 0 .643.214.643.479v1.276c0 .265-.288.479-.643.479Z" fill="#9A9D9F"/></svg>