<svg width="22" height="13" fill="none" xmlns="http://www.w3.org/2000/svg"><path d="M21.499.895c.15-.472 0-.819-.727-.819h-2.406c-.613 0-.894.298-1.045.63 0 0-1.226 2.757-2.957 4.545-.56.517-.817.683-1.123.683-.152 0-.384-.166-.384-.637V.895c0-.566-.172-.819-.678-.819H8.397c-.384 0-.613.264-.613.51 0 .535.866.66.956 2.168v3.274c0 .717-.139.849-.445.849-.817 0-2.802-2.769-3.978-5.937C4.08.325 3.847.076 3.23.076H.825C.139.076 0 .374 0 .706c0 .589.817 3.512 3.802 7.374 1.99 2.637 4.79 4.066 7.34 4.066 1.53 0 1.719-.316 1.719-.863 0-2.52-.14-2.758.629-2.758.355 0 .968.166 2.397 1.438 1.634 1.508 1.903 2.184 2.818 2.184h2.406c.686 0 1.033-.317.833-.944-.458-1.316-3.55-4.024-3.688-4.205-.355-.423-.253-.611 0-.989.004-.003 2.94-3.82 3.243-5.114Z" fill="#fff"/></svg>